<svg xmlns="http://www.w3.org/2000/svg" width="437.16" height="467.88" viewBox="0 0 437.16 467.88"><title>lipstick_code_logo_b</title><path d="M393,233.94a134.83,134.83,0,0,0,44.14-99.5C437.16,60.31,376.86,0,302.73,0A134.36,134.36,0,0,0,234.2,18.76a24.48,24.48,0,0,0-3.39,2.41L13.35,205.06a37.66,37.66,0,0,0,0,57.51L230.8,446.69a24.65,24.65,0,0,0,3.4,2.42,134.28,134.28,0,0,0,68.53,18.77c74.13,0,134.43-60.31,134.43-134.44A134.81,134.81,0,0,0,393,233.94ZM302.73,397.88a64.42,64.42,0,0,1-30.8-7.82L127.92,269H302.73a64.44,64.44,0,0,1,0,128.88Zm0-327.88a64.44,64.44,0,0,1,0,128.88H127.92l144-121.06A64.36,64.36,0,0,1,302.73,70Z" transform="translate(0)"/></svg>